<svg xmlns="http://www.w3.org/2000/svg" width="54.242" height="52.502" viewBox="0 0 54.242 52.502">
  <g id="Group_25501" data-name="Group 25501" transform="translate(651.6 -311.034)">
    <path id="Path_7211" data-name="Path 7211" d="M-600.172,331.469c-.14-.181-.264-.375-.4-.56a4.174,4.174,0,0,1-.849-2.459c-.015-1.358,0-2.719-.076-4.073a5.421,5.421,0,0,0-3.364-4.979,20.518,20.518,0,0,0-3.035-1.07,6.141,6.141,0,0,1-3.778-2.767,19.426,19.426,0,0,0-2.084-2.728,5.181,5.181,0,0,0-5.293-1.625c-1.265.3-2.5.727-3.739,1.136a5.116,5.116,0,0,1-3.371,0c-1.066-.366-2.137-.723-3.222-1.028a5.615,5.615,0,0,0-6.322,2.049,19.348,19.348,0,0,0-1.555,2.139,6.175,6.175,0,0,1-3.9,2.854,18.608,18.608,0,0,0-3.354,1.263,4.935,4.935,0,0,0-2.839,3.963,22.175,22.175,0,0,0-.157,3.692,6.173,6.173,0,0,1-1.424,4.409,11.024,11.024,0,0,0-2.671,4.971v1.377a12.692,12.692,0,0,0,2.751,4.994c.183.237.35.487.522.733a4.037,4.037,0,0,1,.782,2.372c0,1.059-.024,2.119.005,3.177.1,3.5,1.4,5.264,4.708,6.4.7.24,1.4.474,2.118.663a5.388,5.388,0,0,1,3.207,2.347,27.6,27.6,0,0,0,2.046,2.762,5.329,5.329,0,0,0,5.6,1.877,31.377,31.377,0,0,0,3.332-1.018,5.64,5.64,0,0,1,4.08,0c.823.311,1.667.572,2.508.833a5.783,5.783,0,0,0,6.849-2.167c.536-.7,1.07-1.407,1.538-2.153a5.66,5.66,0,0,1,3.444-2.533,23.924,23.924,0,0,0,3.235-1.14,5.2,5.2,0,0,0,3.287-4.342,20.51,20.51,0,0,0,.124-3.43A6.294,6.294,0,0,1-600,342.851a10.88,10.88,0,0,0,2.645-4.926v-1.377A13,13,0,0,0-600.172,331.469Zm.331,8.15c-.6.935-1.27,1.823-1.925,2.721a6.144,6.144,0,0,0-1.362,3.33c-.038.792-.022,1.588-.046,2.382-.024.827-.022,1.66-.11,2.482a3.49,3.49,0,0,1-2.1,2.965,16.52,16.52,0,0,1-2.823,1.035,7.8,7.8,0,0,0-5.014,3.684,18.249,18.249,0,0,1-1.476,2,3.865,3.865,0,0,1-4.4,1.374c-1.1-.321-2.187-.683-3.274-1.045a6.548,6.548,0,0,0-4.208,0c-1.239.4-2.478.816-3.74,1.135a3.461,3.461,0,0,1-3.6-1.111,16.53,16.53,0,0,1-1.8-2.346,7.779,7.779,0,0,0-4.966-3.669,19.674,19.674,0,0,1-2.305-.768,4.055,4.055,0,0,1-2.776-4.032c-.022-.953-.03-1.908,0-2.86a6.858,6.858,0,0,0-1.476-4.636c-.578-.734-1.117-1.5-1.652-2.267a4.348,4.348,0,0,1-.018-5.37q.871-1.263,1.8-2.486a6.642,6.642,0,0,0,1.345-4.149c0-1.322,0-2.649.109-3.964a3.342,3.342,0,0,1,1.982-2.872,17.357,17.357,0,0,1,2.962-1.109,7.809,7.809,0,0,0,4.941-3.619,19.088,19.088,0,0,1,1.539-2.085,3.867,3.867,0,0,1,4.362-1.354q1.5.428,2.969.953a7.063,7.063,0,0,0,4.868,0c1.112-.389,2.241-.746,3.384-1.031a3.454,3.454,0,0,1,3.607,1.1,19.386,19.386,0,0,1,1.958,2.56,7.637,7.637,0,0,0,4.808,3.46,21.921,21.921,0,0,1,2.355.786,4.039,4.039,0,0,1,2.742,3.947c.023.635,0,1.271,0,1.907h.01c0,.053,0,.106,0,.159a8.024,8.024,0,0,0,2.082,6.341,13.654,13.654,0,0,1,1.242,1.776A4.084,4.084,0,0,1-599.842,339.619Z"/>
    <path id="Path_7212" data-name="Path 7212" d="M-518.931,420.9a14.61,14.61,0,0,0-14.6,14.626,14.615,14.615,0,0,0,14.623,14.6A14.623,14.623,0,0,0-504.3,435.5,14.617,14.617,0,0,0-518.931,420.9Zm-.028,27.492a12.891,12.891,0,0,1-12.831-12.9A12.892,12.892,0,0,1-518.9,422.634a12.888,12.888,0,0,1,12.856,12.878A12.89,12.89,0,0,1-518.959,448.39Z" transform="translate(-105.561 -98.224)"/>
    <path id="Path_7213" data-name="Path 7213" d="M-236.323,540.859a2.8,2.8,0,0,1-.606.393,1.454,1.454,0,0,0-1.169,1.615,2.351,2.351,0,0,1-.112.554l-.159.088a9.439,9.439,0,0,1-.754-.773.9.9,0,0,0-1.059-.346,11.124,11.124,0,0,1-1.248.19,8.965,8.965,0,0,1,.524-1.039,1,1,0,0,0-.007-1.292,8.463,8.463,0,0,1-.511-1.011,9.19,9.19,0,0,1,1.264.185.835.835,0,0,0,1.01-.332c.222-.29.47-.562.707-.842l.22.089c.065.381.153.761.189,1.144a.859.859,0,0,0,.6.823C-237.1,540.433-236.78,540.627-236.323,540.859Z" transform="translate(-366.716 -203.142)"/>
    <path id="Path_7214" data-name="Path 7214" d="M-508.331,386.565c-.019.053-.037.1-.055.158-.426.025-.852.076-1.277.066a.665.665,0,0,0-.677.377c-.208.373-.456.723-.686,1.083l-.165-.031a6.881,6.881,0,0,1-.376-.949.932.932,0,0,0-.886-.807,8.474,8.474,0,0,1-1.177-.331c.417-.338.692-.6,1-.8a.845.845,0,0,0,.429-.966,7.644,7.644,0,0,1-.013-1.235,5.326,5.326,0,0,1,.775.477,1.184,1.184,0,0,0,1.566.174,5.5,5.5,0,0,1,.957-.341c-.155.567-.242.973-.378,1.36a.7.7,0,0,0,.174.805C-508.835,385.9-508.591,386.243-508.331,386.565Z" transform="translate(-123.353 -64.456)"/>
    <path id="Path_7215" data-name="Path 7215" d="M-571.424,448.294c-.346.226-.682.471-1.044.67a.692.692,0,0,0-.41.714c.016.41-.035.823-.065,1.385a4.726,4.726,0,0,1-.732-.549,1.294,1.294,0,0,0-1.682-.353,5.717,5.717,0,0,1-.9.212c.214-.537.35-.929.527-1.3a.707.707,0,0,0-.086-.823c-.253-.326-.461-.688-.759-1.143a9.4,9.4,0,0,1,1.313.013.84.84,0,0,0,.922-.423c.211-.311.468-.592.706-.887l.164.036c.11.415.243.826.324,1.247a.665.665,0,0,0,.524.574c.4.119.778.289,1.165.438C-571.443,448.167-571.434,448.231-571.424,448.294Z" transform="translate(-67.081 -120.495)"/>
    <path id="Path_7216" data-name="Path 7216" d="M-511.424,693.159c.136.386.2.8.336,1.354-.541-.21-.937-.338-1.307-.516a.7.7,0,0,0-.822.088c-.316.246-.668.446-1.116.737a2.663,2.663,0,0,1-.042-.661,1.521,1.521,0,0,0-.809-1.886,3.542,3.542,0,0,1-.555-.489c.538-.153.948-.3,1.37-.377a.67.67,0,0,0,.574-.523c.131-.408.309-.8.529-1.357.3.467.536.772.706,1.11a.846.846,0,0,0,.928.517c.356-.031.716-.006,1.075-.006.028.066.054.131.082.2-.254.32-.488.659-.768.955A.745.745,0,0,0-511.424,693.159Z" transform="translate(-121.467 -338.395)"/>
    <path id="Path_7217" data-name="Path 7217" d="M-417.763,358.891c-.391.394-.644.7-.945.941a.81.81,0,0,0-.3.922c.09.369.127.749.218,1.305a11.282,11.282,0,0,1-1.123-.547.9.9,0,0,0-1.109-.011,10.925,10.925,0,0,1-1.112.585,14.4,14.4,0,0,1,.2-1.429.659.659,0,0,0-.233-.737c-.322-.284-.614-.6-1.041-1.026.618-.1,1.066-.15,1.494-.268a1.022,1.022,0,0,0,.54-.389,12.883,12.883,0,0,0,.625-1.179l.166,0c.183.37.381.732.548,1.109a.69.69,0,0,0,.661.488A13.49,13.49,0,0,1-417.763,358.891Z" transform="translate(-204.194 -41.148)"/>
    <path id="Path_7218" data-name="Path 7218" d="M-264,451.677c.165.323.266.679.456,1.176a8.588,8.588,0,0,1-1.147-.27,1,1,0,0,0-1.22.266,9.274,9.274,0,0,1-.9.727,8.626,8.626,0,0,1-.079-1.193.948.948,0,0,0-.6-1.046,8.353,8.353,0,0,1-.869-.549l.032-.186c.373-.144.738-.309,1.12-.424a.749.749,0,0,0,.59-.648c.07-.391.2-.772.3-1.158l.159-.064a6,6,0,0,1,.663.814.967.967,0,0,0,1.152.484,8.729,8.729,0,0,1,.974-.06l.1.144a9.856,9.856,0,0,1-.614.929A.865.865,0,0,0-264,451.677Z" transform="translate(-342.639 -122.731)"/>
    <path id="Path_7219" data-name="Path 7219" d="M-572.448,628.739c-.515.2-.888.373-1.278.488a.743.743,0,0,0-.587.647c-.072.392-.2.773-.356,1.337a11.56,11.56,0,0,1-.833-1,.85.85,0,0,0-.977-.414,11.774,11.774,0,0,1-1.221.089,6.83,6.83,0,0,1,.568-.964,1.034,1.034,0,0,0,.146-1.33,7.214,7.214,0,0,1-.389-1.052,5.988,5.988,0,0,1,.937.239,1.229,1.229,0,0,0,1.582-.354,5.845,5.845,0,0,1,.742-.584,5.854,5.854,0,0,1,.065.983,1.234,1.234,0,0,0,.841,1.391A5.753,5.753,0,0,1-572.448,628.739Z" transform="translate(-66.071 -281.453)"/>
    <path id="Path_7220" data-name="Path 7220" d="M-328.818,694.488c-.426.347-.721.63-1.058.852a.779.779,0,0,0-.38.839c.049.392.044.789.071,1.358a6.089,6.089,0,0,1-.851-.532,1.18,1.18,0,0,0-1.563-.152,5.382,5.382,0,0,1-.9.317c.128-.52.191-.915.325-1.283a.779.779,0,0,0-.185-.9c-.273-.286-.507-.609-.76-.915.02-.053.039-.1.059-.157a6.787,6.787,0,0,1,1.063-.068.947.947,0,0,0,1.034-.608,8.311,8.311,0,0,1,.554-.857l.167.019c.122.318.269.628.359.955a.94.94,0,0,0,.884.809A7.877,7.877,0,0,1-328.818,694.488Z" transform="translate(-283.845 -340.943)"/>
    <path id="Path_7221" data-name="Path 7221" d="M-600.352,538.822a5.537,5.537,0,0,1,.388.822c-.551-.079-.967-.108-1.367-.207a.666.666,0,0,0-.784.249c-.253.333-.522.654-.785.98l-.237-.124a6.709,6.709,0,0,1-.193-1.1.875.875,0,0,0-.654-.894c-.336-.129-.648-.322-1.126-.567.509-.263.862-.472,1.237-.631a.767.767,0,0,0,.531-.752,10.315,10.315,0,0,1,.181-1.169l.27-.124c.254.313.518.617.758.939a.739.739,0,0,0,.837.27c.387-.083.78-.139,1.341-.235a5.2,5.2,0,0,1-.408.872A1.263,1.263,0,0,0-600.352,538.822Z" transform="translate(-41.565 -200.514)"/>
    <path id="Path_7222" data-name="Path 7222" d="M-266.035,632.579a5.12,5.12,0,0,1-.935-.01,1.259,1.259,0,0,0-1.475.7,5.788,5.788,0,0,1-.59.691c-.154-.544-.292-.952-.379-1.372a.672.672,0,0,0-.521-.575c-.41-.124-.8-.306-1.365-.528.466-.3.771-.531,1.106-.7a.855.855,0,0,0,.519-.878c-.012-.367.035-.734.066-1.266a6.573,6.573,0,0,1,.842.622,1.112,1.112,0,0,0,1.406.295,6.025,6.025,0,0,1,.995-.248,4.215,4.215,0,0,1-.274.82,1.321,1.321,0,0,0,.195,1.75A4.3,4.3,0,0,1-266.035,632.579Z" transform="translate(-340.01 -283.956)"/>
    <path id="Path_7223" data-name="Path 7223" d="M-326.573,387.273c-.007.058-.014.117-.02.176a10.3,10.3,0,0,1-1.024.264.921.921,0,0,0-.861.772,9.532,9.532,0,0,1-.456,1.165,10.93,10.93,0,0,1-.7-1.082.887.887,0,0,0-.97-.542c-.355.026-.713.005-1.071.005-.022-.068-.046-.136-.068-.2.261-.319.5-.657.788-.952a.733.733,0,0,0,.177-.852c-.136-.373-.221-.765-.374-1.307a4.045,4.045,0,0,1,.832.267,1.336,1.336,0,0,0,1.795-.194,4.587,4.587,0,0,1,.678-.422,6.319,6.319,0,0,1-.014,1.165.929.929,0,0,0,.482,1.094A8.142,8.142,0,0,1-326.573,387.273Z" transform="translate(-285.973 -65.565)"/>
    <path id="Path_7224" data-name="Path 7224" d="M-420.317,722.7a12.1,12.1,0,0,1-1.377.229.729.729,0,0,0-.7.515c-.164.375-.363.735-.548,1.1l-.163-.011c-.182-.352-.39-.694-.541-1.058a.747.747,0,0,0-.734-.548,9.468,9.468,0,0,1-1.182-.19c-.055-.087-.109-.175-.163-.262.315-.247.628-.5.947-.737a.728.728,0,0,0,.287-.871,11.237,11.237,0,0,1-.2-1.332,12.378,12.378,0,0,1,1.191.589.8.8,0,0,0,.967-.008,12.962,12.962,0,0,1,1.178-.586,7.364,7.364,0,0,1-.164,1.122,1.02,1.02,0,0,0,.4,1.24A10.185,10.185,0,0,1-420.317,722.7Z" transform="translate(-201.941 -365.217)"/>
    <path id="Path_7225" data-name="Path 7225" d="M-371.56,539.254v5.383a12.867,12.867,0,0,1-1.358-.019c-.114-.013-.259-.253-.293-.41-.274-1.249-.525-2.5-.876-3.749V544.6H-375.2v-5.35h1.867c.248,1.193.5,2.394.749,3.6l.077-.006v-3.583Z" transform="translate(-247.117 -204.036)"/>
    <path id="Subtraction_4" data-name="Subtraction 4" d="M1.315,5.445c-.21,0-.417,0-.636-.007h0c-.22,0-.447-.007-.678-.007V0C.242.015.487.025.725.035A14.113,14.113,0,0,1,2.547.191a.864.864,0,0,1,.431.291.892.892,0,0,1,.245.464,27.938,27.938,0,0,1,.058,3.47.947.947,0,0,1-.338.716,1.438,1.438,0,0,1-.833.289C1.876,5.437,1.623,5.445,1.315,5.445ZM1.575.827A1.188,1.188,0,0,0,1.45.834V4.675a1.08,1.08,0,0,0,.129.011H1.6a.652.652,0,0,0,.18-.023.458.458,0,0,0,.313-.5c0-.284.006-.579.007-.9,0-.568,0-1.147,0-1.688h0q0-.1,0-.209A.7.7,0,0,0,2.03,1.06.385.385,0,0,0,1.846.879.634.634,0,0,0,1.575.827Z" transform="translate(-618.094 335.136)" stroke="rgba(0,0,0,0)" stroke-width="1"/>
    <path id="Subtraction_2" data-name="Subtraction 2" d="M2.461,5.455a.6.6,0,0,1-.447-.121c-.148-.149-.154-.466-.152-1.014,0-.076,0-.154,0-.228a4.9,4.9,0,0,0-.013-.617.64.64,0,0,0-.135-.364.472.472,0,0,0-.377-.145,1.087,1.087,0,0,0-.155.012V5.4H0V.008H.014c.182,0,.364,0,.54,0S.914,0,1.1,0c.269,0,.49,0,.7.015a1.683,1.683,0,0,1,.886.232.994.994,0,0,1,.389.635,1.392,1.392,0,0,1-.049.915,1.648,1.648,0,0,1-.688.7.936.936,0,0,1,.644.439,1.437,1.437,0,0,1,.145.751c-.008.383-.006.76,0,1.16,0,.178,0,.362,0,.55l.009,0h0a.17.17,0,0,1-.075.024C2.788,5.441,2.608,5.455,2.461,5.455Zm-1.269-3.3h0a1.6,1.6,0,0,0,.326-.073c.261-.094.36-.261.352-.6,0-.046,0-.1-.009-.151a1.087,1.087,0,0,0-.037-.2A.429.429,0,0,0,1.37.792c-.025,0-.052,0-.079,0s-.064.007-.1.013V2.156h0Z" transform="translate(-629.952 335.181)" stroke="rgba(0,0,0,0)" stroke-width="1"/>
    <path id="Subtraction_1" data-name="Subtraction 1" d="M1.2,5.385c-.194,0-.384,0-.585,0H.612c-.2,0-.4,0-.612,0V.006H.017C.19.006.365,0,.533,0s.343,0,.517,0C1.3,0,1.5,0,1.694.011a1.643,1.643,0,0,1,.881.224,1.014,1.014,0,0,1,.4.642,1.655,1.655,0,0,1-.014.953,1.275,1.275,0,0,1-.539.653c.06.093.133.185.2.275a1.214,1.214,0,0,1,.33.612,4.125,4.125,0,0,1-.053.844c-.038.243-.094.5-.18.837a.414.414,0,0,1-.223.208.934.934,0,0,1-.346.106C1.874,5.378,1.582,5.385,1.2,5.385Zm-.094-2.39V4.654h0c.031,0,.062,0,.091,0a.7.7,0,0,0,.28-.05h0a.465.465,0,0,0,.259-.377,2.1,2.1,0,0,0,.028-.32c.013-.437-.009-.667-.165-.787a.959.959,0,0,0-.5-.128ZM1.3.781A1.054,1.054,0,0,0,1.1.8V2.188c.3-.008.468-.062.563-.181a.446.446,0,0,0,.079-.163,1.569,1.569,0,0,0,.031-.48A.779.779,0,0,0,1.657.939.411.411,0,0,0,1.3.781Z" transform="translate(-633.775 335.177)" stroke="rgba(0,0,0,0)" stroke-width="1"/>
    <path id="Subtraction_3" data-name="Subtraction 3" d="M1.025,5.382H0L.239,3.976l.045-.264,0-.021C.493,2.482.706,1.231.915,0H2.643c.24,1.858.476,3.674.7,5.375H2.115c-.061-.456-.119-.89-.168-1.261L1.275,4.08l-.1.5-.011.057,0,.018c-.046.237-.093.482-.14.73Zm.556-4.21h0c-.016.179-.032.365-.046.528-.03.351-.061.714-.1,1.071-.006.063-.013.124-.019.183-.015.142,0,.232.052.276a.168.168,0,0,0,.114.034.681.681,0,0,0,.122-.014l.067-.013.084-.016C1.83,2.911,1.8,2.6,1.774,2.306l0-.036h0c-.035-.377-.069-.734-.1-1.1H1.581Z" transform="translate(-626.158 335.196)" stroke="rgba(0,0,0,0)" stroke-width="1"/>
  </g>
</svg>
