<svg xmlns="http://www.w3.org/2000/svg" width="24.026" height="20.182" viewBox="0 0 24.026 20.182">
  <g id="language" transform="translate(-6102.944 -1438.844)">
    <g id="_22._Language" data-name="22. Language" transform="translate(6102.944 1438.844)">
      <path id="Path_3091" data-name="Path 3091" d="M22.857,11c-3.7,0-6.822,2.033-7.827,4.811C10.59,15.873,7,18.861,7,22.533a6.053,6.053,0,0,0,1.922,4.328V30.7a.48.48,0,0,0,.788.369l2.664-2.217a9.706,9.706,0,0,0,2.794.407c3.7,0,6.821-2.032,7.826-4.81a9.693,9.693,0,0,0,2.656-.4l2.664,2.217A.48.48,0,0,0,29.1,25.9v-3.84a6.054,6.054,0,0,0,1.922-4.329C31.026,14.018,27.362,11,22.857,11Zm5.286,10.85v3.021l-2.078-1.73a.48.48,0,0,0-.458-.087,8.677,8.677,0,0,1-2.359.424,5.559,5.559,0,0,0,.09-.946,5.808,5.808,0,0,0-1.105-3.364h1.831l.744,2.084a.48.48,0,0,0,.9-.323L23.31,14.2a.48.48,0,0,0-.9,0l-1.322,3.7a8.888,8.888,0,0,0-5.031-2.059c.978-2.257,3.656-3.885,6.806-3.885,3.975,0,7.208,2.587,7.208,5.766A5.15,5.15,0,0,1,28.3,21.5.481.481,0,0,0,28.143,21.85ZM15.169,28.3a8.718,8.718,0,0,1-2.749-.439.478.478,0,0,0-.458.087l-2.078,1.73V26.655a.48.48,0,0,0-.155-.353,5.148,5.148,0,0,1-1.767-3.769c0-3.179,3.233-5.766,7.208-5.766s7.208,2.587,7.208,5.766S19.144,28.3,15.169,28.3Zm6.826-10.091.863-2.416.863,2.416Z" transform="translate(-7 -11)"/>
      <path id="Path_3092" data-name="Path 3092" d="M21.794,29.643c.009-.157.009-.258.009-.283a.481.481,0,0,0-.961,0s0,.025,0,.064a6.975,6.975,0,0,0-.925-.062q.023-.458.058-.826a5.6,5.6,0,0,0,1.615-.7.481.481,0,1,0-.533-.8,4.128,4.128,0,0,1-.945.449,4.071,4.071,0,0,1,.2-.8.481.481,0,1,0-.863-.423,5.308,5.308,0,0,0-.356,1.489,10.061,10.061,0,0,1-1.618.168.481.481,0,0,0,0,.961,10.446,10.446,0,0,0,1.513-.134c-.017.22-.031.461-.042.719A2.341,2.341,0,0,0,17,31.762a1.842,1.842,0,0,0,1.922,1.922,2.6,2.6,0,0,0,.466-.045,1.856,1.856,0,0,0,.761.955.5.5,0,0,0,.223.052.482.482,0,0,0,.434-.26.468.468,0,0,0-.2-.638,1.227,1.227,0,0,1-.324-.475,4.1,4.1,0,0,0,1.4-2.649c.7.279,1.087.713,1.087,1.137a1.652,1.652,0,0,1-1.113,1.466.481.481,0,0,0,.3.912,2.608,2.608,0,0,0,1.77-2.378C23.725,30.92,23.068,30.07,21.794,29.643ZM18.92,32.723a.9.9,0,0,1-.961-.961,1.345,1.345,0,0,1,.964-1.288c0,.109,0,.213,0,.327a9.229,9.229,0,0,0,.176,1.91,1.5,1.5,0,0,1-.176.012Zm1.066-.48a8.931,8.931,0,0,1-.1-1.442c0-.167,0-.325,0-.48a5.886,5.886,0,0,1,.86.061A3.772,3.772,0,0,1,19.986,32.244Z" transform="translate(-12.193 -18.788)"/>
    </g>
  </g>
</svg>
