<svg xmlns="http://www.w3.org/2000/svg" xmlns:xlink="http://www.w3.org/1999/xlink" width="138" height="24" viewBox="0 0 138 24">
  <defs>
    <clipPath id="clip-logo">
      <rect width="138" height="24"/>
    </clipPath>
  </defs>
  <g id="logo" clip-path="url(#clip-logo)">
    <g id="Group_4587" data-name="Group 4587" transform="translate(-32.79 -39.997)">
      <g id="Group_4413" data-name="Group 4413" transform="translate(36.789 41.998)">
        <g id="Group_1" data-name="Group 1" transform="translate(0 0)">
          <path id="Path_1" data-name="Path 1" d="M12.246,19.791a6.2,6.2,0,0,1-.809.07,4.157,4.157,0,0,1-3.663-1.983Q4.192,12.243.659,6.577A4.3,4.3,0,0,1,4.119,0a4.027,4.027,0,0,1,3.736,1.89c2.442,3.811,4.868,7.637,7.233,11.5a4.285,4.285,0,0,1-2.841,6.4Z" transform="translate(-0.003 0.051)" fill="#2a2a36"/>
          <path id="Path_2" data-name="Path 2" d="M10.83,19.84a3.967,3.967,0,0,1-3.064-2Q4.208,12.23.7,6.6A4.121,4.121,0,0,1,.6,2.178,4.065,4.065,0,0,1,4.335,0a4.119,4.119,0,0,1,3.64,2.014C10.34,5.75,12.712,9.5,15.038,13.26a4.761,4.761,0,0,1,.63,1.8C16.018,17.623,14,19.856,10.83,19.84Z" transform="translate(14.509 0.056)" fill="#2a2a36"/>
          <path id="Path_3" data-name="Path 3" d="M3.675.094A4.512,4.512,0,0,0,.921,7.271q1.057,1.435,2.124,2.877l1.493,2.015c.078-.1.14-.164.187-.233C5.86,10.393,7,8.844,8.14,7.3a4.735,4.735,0,0,0,.933-2.857A4.476,4.476,0,0,0,3.675.094Zm.856,6.253a1.792,1.792,0,0,1-1.8-1.8,1.813,1.813,0,1,1,3.626,0,1.794,1.794,0,0,1-1.829,1.8Z" transform="translate(29.209 0.002)" fill="#02fee4"/>
        </g>
      </g>
      <g id="Group_4418" data-name="Group 4418" transform="translate(86.243 41.999)">
        <g id="Group_4414" data-name="Group 4414" transform="translate(0 6.129)">
          <path id="Path_4052" data-name="Path 4052" d="M1091.3,669.329l1.737,6.676c.38,1.466.733,2.823.977,4.175h.081c.3-1.329.733-2.741,1.167-4.152l2.144-6.7h2.008l2.036,6.567c.489,1.574.868,2.958,1.167,4.285h.081a39.569,39.569,0,0,1,1-4.261l1.868-6.592h2.361l-4.233,13.134h-2.171l-2.008-6.268a43.764,43.764,0,0,1-1.167-4.314h-.054a38.864,38.864,0,0,1-1.194,4.342l-2.117,6.242h-2.171l-3.962-13.134Z" transform="translate(-1088.85 -669.325)" fill="#2a2a36" stroke="#2a2a36" stroke-width="1"/>
        </g>
        <g id="Group_4415" data-name="Group 4415" transform="translate(21.279 5.835)">
          <path id="Path_4053" data-name="Path 4053" d="M1304.95,673.629a4.208,4.208,0,0,0,4.5,4.56,8.639,8.639,0,0,0,3.637-.679l.407,1.71a10.641,10.641,0,0,1-4.37.814c-4.043,0-6.458-2.659-6.458-6.621s2.334-7.082,6.16-7.082c4.285,0,5.427,3.772,5.427,6.187a9.051,9.051,0,0,1-.081,1.113Zm7-1.71c.027-1.52-.624-3.881-3.31-3.881-2.417,0-3.473,2.225-3.663,3.881Z" transform="translate(-1302.67 -666.33)" fill="#2a2a36" stroke="#2a2a36" stroke-width="1"/>
        </g>
        <g id="Group_4416" data-name="Group 4416" transform="translate(34.732 6.133)">
          <path id="Path_4054" data-name="Path 4054" d="M1440.819,669.329l1.868,2.823c.489.733.9,1.411,1.329,2.144h.081c.44-.787.868-1.466,1.3-2.171l1.846-2.8h2.579l-4.477,6.35,4.614,6.784h-2.714l-1.927-2.958c-.515-.76-.95-1.493-1.411-2.28h-.054c-.44.787-.9,1.492-1.384,2.28l-1.9,2.958h-2.637l4.667-6.7-4.451-6.432Z" transform="translate(-1437.935 -669.329)" fill="#2a2a36" stroke="#2a2a36" stroke-width="1"/>
        </g>
        <g id="Group_4417" data-name="Group 4417" transform="translate(48.629)">
          <path id="Path_4055" data-name="Path 4055" d="M1580.459,669.329l1.868,2.823c.488.733.9,1.411,1.329,2.144h.081c.44-.787.868-1.466,1.3-2.171l1.846-2.8h2.578l-4.477,6.35,4.615,6.784h-2.714l-1.927-2.958c-.515-.76-.949-1.493-1.411-2.28h-.055c-.439.787-.9,1.492-1.384,2.28l-1.9,2.958h-2.637l4.667-6.7-4.451-6.432Z" transform="translate(-1577.574 -663.196)" fill="#2a2a36" stroke="#2a2a36" stroke-width="1"/>
          <path id="Path_4056" data-name="Path 4056" d="M1727.03,607.694h2.388v19.267h-2.388Z" transform="translate(-1712.155 -607.694)" fill="#2a2a36" stroke="#2a2a36" stroke-width="1"/>
          <path id="Path_4057" data-name="Path 4057" d="M1787.945,673.629a4.208,4.208,0,0,0,4.5,4.56,8.637,8.637,0,0,0,3.637-.679l.406,1.71a10.641,10.641,0,0,1-4.369.814c-4.043,0-6.458-2.659-6.458-6.621s2.334-7.082,6.16-7.082c4.285,0,5.427,3.772,5.427,6.187a9.052,9.052,0,0,1-.081,1.113Zm7-1.71c.028-1.52-.624-3.881-3.31-3.881-2.417,0-3.473,2.225-3.663,3.881Z" transform="translate(-1764.955 -660.495)" fill="#2a2a36" stroke="#2a2a36" stroke-width="1"/>
        </g>
      </g>
    </g>
  </g>
</svg>
