<svg xmlns="http://www.w3.org/2000/svg" width="25" height="24.072" viewBox="0 0 25 24.072">
  <g id="settings" transform="translate(-8.969 -964.362)">
    <path id="Path_1" data-name="Path 1" d="M16.534,12a.648.648,0,0,0-.543.633v1.792A6.294,6.294,0,0,0,14.866,15l-1.191-1.237a.617.617,0,0,0-.867,0l-2.134,2.217a.677.677,0,0,0,0,.9l1.248,1.3c-.056.15-.122.263-.181.445-.069.213-.121.439-.181.663H9.579a.646.646,0,0,0-.61.633v3.167a.646.646,0,0,0,.61.633h2.01a8.956,8.956,0,0,0,.353,1.069L10.674,26.1a.677.677,0,0,0,0,.9l2.134,2.217a.617.617,0,0,0,.867,0l1.191-1.237a6.315,6.315,0,0,0,1.124.574v1.811A.646.646,0,0,0,16.6,31h3.049a.646.646,0,0,0,.61-.633V28.134a.611.611,0,1,0-1.22,0v1.6H17.21v-1.6a.649.649,0,0,0-.457-.614,5.436,5.436,0,0,1-1.648-.861.612.612,0,0,0-.772.079l-1.086,1.138L11.97,26.55l1.1-1.128a.672.672,0,0,0,.1-.762,12.451,12.451,0,0,1-.543-1.712.635.635,0,0,0-.6-.495H10.188v-1.9h1.829a.635.635,0,0,0,.6-.495c.066-.3.177-.694.286-1.029s.228-.648.257-.7a.672.672,0,0,0-.1-.762l-1.1-1.128,1.277-1.326,1.086,1.138a.612.612,0,0,0,.772.079,5.469,5.469,0,0,1,1.648-.871.648.648,0,0,0,.457-.6V13.267h1.829v1.584a.648.648,0,0,0,.448.6,5.517,5.517,0,0,1,1.658.871.612.612,0,0,0,.772-.079L23,15.108l1.277,1.326-1.1,1.128a.672.672,0,0,0-.1.762,7.4,7.4,0,0,1,.257.7c.107.336.21.723.276,1.029a.635.635,0,0,0,.6.495h1.829v.95a.611.611,0,1,0,1.22,0V19.919a.646.646,0,0,0-.61-.633H24.679c-.059-.223-.1-.451-.171-.663-.058-.182-.125-.3-.181-.445l1.248-1.3a.677.677,0,0,0,0-.9l-2.134-2.217a.617.617,0,0,0-.867,0l-1.181,1.227a6.42,6.42,0,0,0-1.134-.564V12.633a.646.646,0,0,0-.61-.633Zm1.524,5.7a3.52,3.52,0,0,0-1.42.317,3.877,3.877,0,0,0-1.867,5.018,3.621,3.621,0,0,0,4.83,1.94,3.877,3.877,0,0,0,1.867-5.018A3.661,3.661,0,0,0,18.058,17.7Zm.019,1.257a2.426,2.426,0,0,1,2.268,1.514,2.565,2.565,0,0,1-1.239,3.346,2.4,2.4,0,0,1-3.22-1.3,2.558,2.558,0,0,1,1.248-3.336A2.364,2.364,0,0,1,18.077,18.958ZM26.595,23.4a.648.648,0,0,0-.543.633v1.316l-.791-.822a.616.616,0,0,0-.857,0l-1.524,1.584a.677.677,0,0,0,0,.9l.791.822H22.393a.646.646,0,0,0-.61.633V31a.646.646,0,0,0,.61.633H23.66l-.781.812a.677.677,0,0,0,0,.9L24.4,34.934a.616.616,0,0,0,.857,0l.791-.822v1.326a.646.646,0,0,0,.61.633H29.1a.646.646,0,0,0,.61-.633V34.122l.781.812a.617.617,0,0,0,.867,0l1.524-1.584a.677.677,0,0,0,0-.9l-.781-.812h1.258a.646.646,0,0,0,.61-.633V28.471a.646.646,0,0,0-.61-.633H32.092l.791-.822a.677.677,0,0,0,0-.9l-1.524-1.584a.617.617,0,0,0-.867,0l-.781.812V24.036a.646.646,0,0,0-.61-.633Zm.676,1.267h1.22v.95a.652.652,0,0,0,.267.525c.328.226.261.149.429.436a.624.624,0,0,0,.953.119l.791-.822.648.693-.781.812a.67.67,0,0,0-.114.732,1.521,1.521,0,0,0,.171.277.911.911,0,0,1,.1.257.631.631,0,0,0,.581.455h1.22v1.267H31.53a.631.631,0,0,0-.581.455.759.759,0,0,1-.1.247,1.516,1.516,0,0,0-.171.277.67.67,0,0,0,.114.732l.781.822-.648.673-.791-.812a.624.624,0,0,0-.953.119c-.168.287-.1.209-.429.436a.653.653,0,0,0-.267.535v.95h-1.22v-.95a.652.652,0,0,0-.276-.535c-.328-.226-.261-.149-.429-.436a.623.623,0,0,0-.943-.119l-.791.822-.667-.683.791-.822a.67.67,0,0,0,.114-.732,1.52,1.52,0,0,0-.171-.277.758.758,0,0,1-.1-.247.631.631,0,0,0-.581-.455H23V29.1h1.22a.631.631,0,0,0,.581-.455.913.913,0,0,1,.1-.257,1.517,1.517,0,0,0,.171-.277.67.67,0,0,0-.114-.732l-.791-.812.667-.693.791.822a.623.623,0,0,0,.943-.119c.168-.287.1-.209.429-.436a.652.652,0,0,0,.276-.525Zm.572,2.534a2.324,2.324,0,0,0-.943.208,2.589,2.589,0,0,0-1.248,3.346,2.408,2.408,0,0,0,3.211,1.3,2.59,2.59,0,0,0,1.248-3.346A2.435,2.435,0,0,0,27.843,27.2Zm.019,1.257A1.214,1.214,0,0,1,29,29.223a1.278,1.278,0,0,1-.619,1.673,1.2,1.2,0,0,1-1.61-.653,1.267,1.267,0,0,1,.619-1.663A1.215,1.215,0,0,1,27.862,28.461Z" transform="translate(0 952.362)" fill="#6f6f6f"/>
  </g>
</svg>
