<svg xmlns="http://www.w3.org/2000/svg" width="25" height="20.723" viewBox="0 0 25 20.723">
  <g id="users" transform="translate(-6 -965.362)">
    <path id="Path_8" data-name="Path 8" d="M14.8,965.362a5.042,5.042,0,1,0,5.113,5.042,5.078,5.078,0,0,0-5.113-5.042Zm0,1.681a3.361,3.361,0,1,1-3.409,3.361,3.324,3.324,0,0,1,.994-2.38A3.42,3.42,0,0,1,14.8,967.043Zm9.658,1.4a3.641,3.641,0,1,0,3.693,3.641,3.667,3.667,0,0,0-3.693-3.641Zm0,1.681a1.961,1.961,0,1,1-1.989,1.961,1.934,1.934,0,0,1,.578-1.389,1.99,1.99,0,0,1,1.408-.572Zm-9.939,5.882A8.635,8.635,0,0,0,6,984.671c0,.2,0,.417.009.6a.879.879,0,0,0,.852.814H22.749a.879.879,0,0,0,.852-.8c.012-.224.009-.405.009-.6A8.635,8.635,0,0,0,15.09,976Zm9.658.28a6.259,6.259,0,0,0-1.971.315.84.84,0,0,0-.5,1.049.857.857,0,0,0,1.037.551,4.463,4.463,0,0,1,1.438-.236h.568a4.276,4.276,0,0,1,4.518,3.921H25.03a.841.841,0,1,0,0,1.681h5.109a.879.879,0,0,0,.852-.8c.012-.226.009-.417.009-.6a5.949,5.949,0,0,0-1.879-4.228,6.122,6.122,0,0,0-4.371-1.654Zm-9.658,1.4h.568a6.91,6.91,0,0,1,6.8,6.722H7.724a6.91,6.91,0,0,1,6.8-6.722Z" transform="translate(0)" fill="#6f6f6f"/>
  </g>
</svg>
