<svg xmlns="http://www.w3.org/2000/svg" width="26.27" height="25.178" viewBox="0 0 26.27 25.178">
  <g id="tag_1_" data-name="tag (1)" transform="translate(0 -0.499)">
    <path id="Path_6486" data-name="Path 6486" d="M24.22,12.8l-.626-5.407c2.448-1.774,3.463-4.751,2-6.218a2.755,2.755,0,0,0-2.684-.56,6.145,6.145,0,0,0-2.762,1.649l-.03.031-7.238-.839L0,14.333,11.343,25.676Zm-.94-10.69a1.3,1.3,0,0,1,1.221.155c.57.57.048,2.151-1.12,3.3L23.2,4.016l-1.26-1.26A4.1,4.1,0,0,1,23.279,2.11Zm-9.841.963,5.59.648a5.285,5.285,0,0,0-.522,1.263l-.541-.541L16.876,5.532,20.144,8.8l1.089-1.089L20.144,6.622A1.3,1.3,0,0,1,19.989,5.4a4.225,4.225,0,0,1,.752-1.482l.21.024.783.783.87,7.512L11.343,23.5,2.178,14.333Zm0,0" transform="translate(0 0)" fill="#6f6f6f"/>
    <path id="Path_6487" data-name="Path 6487" d="M123,211.617a2.311,2.311,0,1,0,2.311,2.311A2.313,2.313,0,0,0,123,211.617Zm0,3.081a.77.77,0,1,1,.77-.77A.771.771,0,0,1,123,214.7Zm0,0" transform="translate(-114.499 -200.286)" fill="#6f6f6f"/>
    <path id="Path_6488" data-name="Path 6488" d="M273.111,216.238a2.311,2.311,0,1,0-2.31-2.31A2.313,2.313,0,0,0,273.111,216.238Zm0-3.081a.77.77,0,1,1-.77.77A.771.771,0,0,1,273.111,213.158Zm0,0" transform="translate(-256.906 -200.286)" fill="#6f6f6f"/>
    <path id="Path_6489" data-name="Path 6489" d="M212.5,164.121l1.519.253-1.54,9.242-1.519-.253Zm0,0" transform="translate(-200.137 -155.227)" fill="#6f6f6f"/>
  </g>
</svg>
