<svg xmlns="http://www.w3.org/2000/svg" width="25" height="19.411" viewBox="0 0 25 19.411">
  <g id="adminUsers" transform="translate(0.001 0)">
    <g id="Слой_1" data-name="Слой 1" transform="translate(-0.001 0)">
      <path id="Path_5" data-name="Path 5" d="M24.94,14.356a.945.945,0,0,0-.346-.508l-.488-.427v-.986a.142.142,0,0,1,0-.071l.58-.58a1,1,0,0,0,.112-1.149l-1.017-1.79a1.017,1.017,0,0,0-.61-.437,1.1,1.1,0,0,0-.62,0l-.62.224L21.4,8.4l-.346-.224a.152.152,0,0,1,0-.061l-.2-.793a.94.94,0,0,0-1.037-.61H17.783a1.017,1.017,0,0,0-.681.275.956.956,0,0,0-.285.549l-.132.641v.071l-.234.153-.569.285H15.75l-.793-.224a1.017,1.017,0,0,0-.854.214.956.956,0,0,0-.193.244l-1.017,1.789a1.017,1.017,0,0,0-.1.732.946.946,0,0,0,.336.519l.478.437V13.41a.153.153,0,0,1,0,.071l-.6.569a1.017,1.017,0,0,0-.244.844.956.956,0,0,0,.112.295L13.889,17a1.017,1.017,0,0,0,.569.458,1.159,1.159,0,0,0,.62,0l.62-.193h.081l.244.122.529.356a.142.142,0,0,1,0,.061l.193.8a.946.946,0,0,0,.142.3.966.966,0,0,0,.773.4h2.084a1.017,1.017,0,0,0,.671-.264.946.946,0,0,0,.3-.539l.152-.63V17.8l.783-.5.173-.1H21.9l.793.214a1.017,1.017,0,0,0,.854-.234.956.956,0,0,0,.193-.244l1.017-1.82a1.017,1.017,0,0,0,.183-.752Zm-1.972.539-.366.661a2.542,2.542,0,0,0-3.345,2.033h-.925a2.532,2.532,0,0,0-3.264-2.033l-.376-.681a2.532,2.532,0,0,0-.041-3.8l.437-.752a2.532,2.532,0,0,0,.8.142,2.562,2.562,0,0,0,2.5-2.033h.844A2.532,2.532,0,0,0,22.6,10.309l.427.742a2.521,2.521,0,0,0-.051,3.874Z" transform="translate(0.048 0.112)" fill="#6f6f6f"/>
      <path id="Path_6" data-name="Path 6" d="M13.019,1.23A4.717,4.717,0,0,0,9.776,0,4.717,4.717,0,0,0,6.533,1.23,4.941,4.941,0,0,0,5.18,5.155,5.3,5.3,0,0,0,6.7,8.266,4.362,4.362,0,0,0,9.745,10h0A4.341,4.341,0,0,0,12.8,8.266a5.307,5.307,0,0,0,1.51-3.111A4.941,4.941,0,0,0,13.019,1.23Zm-.366,3.762a3.619,3.619,0,0,1-1.017,2.115C11.1,7.6,10.507,8.266,9.775,8.276s-1.24-.559-1.81-1.159A3.609,3.609,0,0,1,6.949,5a3.243,3.243,0,0,1,.824-2.5,3.124,3.124,0,0,1,4.067,0,3.243,3.243,0,0,1,.813,2.481Z" transform="translate(0.033 0)" fill="#6f6f6f"/>
      <path id="Path_7" data-name="Path 7" d="M11.956,17.509h-10A8.042,8.042,0,0,1,6.6,12.171,6.842,6.842,0,0,0,9.75,13h.112a6.669,6.669,0,0,0,.773-.051.864.864,0,0,0-.244-1.708,4.554,4.554,0,0,1-.529,0H9.77A5.175,5.175,0,0,1,7,10.372a.529.529,0,0,0-.3-.092.559.559,0,0,0-.183,0A9.791,9.791,0,0,0,0,18.536a.681.681,0,0,0,.112.407.752.752,0,0,0,.59.3H11.956a.864.864,0,0,0,0-1.728Z" transform="translate(0.001 0.172)" fill="#6f6f6f"/>
      <circle id="Ellipse_1" data-name="Ellipse 1" cx="1.312" cy="1.312" r="1.312" transform="translate(17.622 11.702)" fill="#6f6f6f"/>
    </g>
  </g>
</svg>
