<svg xmlns="http://www.w3.org/2000/svg" width="24.612" height="24.976" viewBox="0 0 24.612 24.976">
  <g id="assets" transform="translate(-0.529 -288.953)">
    <path id="Path_4" data-name="Path 4" d="M15.472,288.953,5.8,298.622v4.759H3.5l-1.938,3.875L.529,308.291v3.88H2.287v1.758H4.045v-1.758H9.319v1.758h1.758v-1.758h1.758v-3.88L11.8,307.256l-1.938-3.875h-2.3V299.35l7.911-7.911,7.911,7.911v12.821H21.625V301.623H14.593v12.306H25.141V289.317H19.867v4.031Zm6.153,2.122h1.758v5.789l-1.758-1.758Zm-8.79,5.274v1.758h1.758v-1.758Zm3.516,0v1.758h1.758v-1.758Zm0,7.032h3.516v8.79H16.351ZM4.588,305.139H8.777l.879,1.758H3.709Zm-1.937,3.516h8.062l.364.364v1.394H2.287v-1.394Z" transform="translate(0 0)" fill="#6f6f6f"/>
  </g>
</svg>
