<svg xmlns="http://www.w3.org/2000/svg" width="25.485" height="21.192" viewBox="0 0 25.485 21.192">
  <g id="attributes" transform="translate(197.61 -453.275)">
    <path id="Path_2" data-name="Path 2" d="M6.068,62.442a1.318,1.318,0,0,0,1.317-1.317V58.554a1.318,1.318,0,0,0-1.317-1.317h-1.9V53.709h8.108v3.528h-1.9A1.318,1.318,0,0,0,9.05,58.554v2.571a1.318,1.318,0,0,0,1.317,1.317h4.751a1.318,1.318,0,0,0,1.317-1.317V58.554a1.318,1.318,0,0,0-1.317-1.317h-1.9V53.709h8.108v3.528h-1.9A1.318,1.318,0,0,0,18.1,58.554v2.571a1.318,1.318,0,0,0,1.317,1.317h4.751a1.318,1.318,0,0,0,1.317-1.317V58.554a1.318,1.318,0,0,0-1.317-1.317h-1.9v-4a.475.475,0,0,0-.474-.474H13.219V50.305H17.07A1.73,1.73,0,0,0,18.8,48.578v-5.6A1.73,1.73,0,0,0,17.07,41.25H8.42a1.73,1.73,0,0,0-1.728,1.728v5.595A1.73,1.73,0,0,0,8.42,50.3h3.851v2.462H3.69a.475.475,0,0,0-.474.474v4h-1.9A1.318,1.318,0,0,0,0,58.549V61.12a1.318,1.318,0,0,0,1.317,1.317H6.068S6.068,62.442,6.068,62.442Zm9.425-3.888v2.571a.373.373,0,0,1-.375.375H10.367a.373.373,0,0,1-.375-.375V58.554a.373.373,0,0,1,.375-.375h4.751A.37.37,0,0,1,15.493,58.554Zm9.055,0v2.571a.373.373,0,0,1-.375.375H19.422a.373.373,0,0,1-.375-.375V58.554a.373.373,0,0,1,.375-.375h4.751A.37.37,0,0,1,24.548,58.554ZM7.635,48.572V42.978a.788.788,0,0,1,.786-.786H17.07a.788.788,0,0,1,.786.786v5.595a.788.788,0,0,1-.786.786H8.42A.788.788,0,0,1,7.635,48.572ZM.942,61.125V58.554a.373.373,0,0,1,.375-.375H6.068a.373.373,0,0,1,.375.375v2.571a.373.373,0,0,1-.375.375H1.317A.373.373,0,0,1,.942,61.125Z" transform="translate(-197.61 412.025)" fill="#6f6f6f"/>
  </g>
</svg>
