<svg xmlns="http://www.w3.org/2000/svg" width="25.05" height="21.637" viewBox="0 0 25.05 21.637">
  <g id="report" transform="translate(-6.003 -964.36)">
    <g id="Group_6775" data-name="Group 6775" transform="translate(6.003 964.36)">
      <path id="Path_3099" data-name="Path 3099" d="M12.531,0A1.9,1.9,0,0,0,10.9.928L.265,18.833a1.816,1.816,0,0,0,0,1.876,1.891,1.891,0,0,0,1.644.928H23.153a1.891,1.891,0,0,0,1.644-.928,1.839,1.839,0,0,0,0-1.876L14.166.928A1.9,1.9,0,0,0,12.531,0Zm0,1.14a.825.825,0,0,1,.656.363L23.819,19.418a.732.732,0,0,1,0,.706.854.854,0,0,1-.666.373H1.91a.838.838,0,0,1-.666-.373.732.732,0,0,1,0-.706L11.876,1.5A.825.825,0,0,1,12.531,1.14Zm0,4.842a.573.573,0,0,0-.575.565v7.969a.575.575,0,0,0,.575.575.566.566,0,0,0,.565-.575V6.547A.564.564,0,0,0,12.531,5.982Zm0,10.249a.852.852,0,1,0,.847.847A.846.846,0,0,0,12.531,16.23Z" transform="translate(-0.004)"/>
    </g>
  </g>
</svg>
