<svg xmlns="http://www.w3.org/2000/svg" width="62.881" height="54.112" viewBox="0 0 62.881 54.112">
  <g id="Group_25690" data-name="Group 25690" transform="translate(21637.793 15595.099)">
    <g id="Group_25689" data-name="Group 25689">
      <path id="Path_64575" data-name="Path 64575" d="M253.2,490.68H225.021a1.127,1.127,0,1,0,0,2.255H253.2a1.127,1.127,0,1,0,0-2.255Z" transform="translate(-21829.244 -16033.921)"/>
      <path id="Path_64576" data-name="Path 64576" d="M291.361,341.347H267.687a1.127,1.127,0,0,0,0,2.255h23.674a1.127,1.127,0,0,0,0-2.255Z" transform="translate(-21867.4 -15900.37)"/>
      <path id="Path_64577" data-name="Path 64577" d="M253.2,416.013H225.021a1.127,1.127,0,1,0,0,2.255H253.2a1.127,1.127,0,1,0,0-2.255Z" transform="translate(-21829.244 -15967.146)"/>
      <path id="Path_64578" data-name="Path 64578" d="M253.2,149.347H225.021a1.127,1.127,0,1,0,0,2.255H253.2a1.127,1.127,0,1,0,0-2.255Z" transform="translate(-21829.244 -15728.662)"/>
      <path id="Path_64579" data-name="Path 64579" d="M253.2,224.013H225.021a1.127,1.127,0,1,0,0,2.255H253.2a1.127,1.127,0,1,0,0-2.255Z" transform="translate(-21829.244 -15795.438)"/>
      <path id="Path_64580" data-name="Path 64580" d="M267.687,2.268h23.674a1.127,1.127,0,1,0,0-2.255H267.687a1.127,1.127,0,1,0,0,2.255Z" transform="translate(-21867.4 -15595.111)"/>
      <path id="Path_64581" data-name="Path 64581" d="M253.2,74.68H225.021a1.127,1.127,0,1,0,0,2.255H253.2a1.127,1.127,0,1,0,0-2.255Z" transform="translate(-21829.244 -15661.887)"/>
      <path id="Subtraction_2" data-name="Subtraction 2" d="M7.885,54.105a1.116,1.116,0,0,1-.794-.329L.326,47.012a1.139,1.139,0,0,1,0-1.567,1.111,1.111,0,0,1,.8-.337,1.138,1.138,0,0,1,.787.315l4.837,4.837V40.6H9.006v9.67l4.847-4.847a1.124,1.124,0,0,1,1.59,1.589L8.68,53.776A1.119,1.119,0,0,1,7.885,54.105ZM9.006,15.6H6.752V3.846L1.9,8.682a1.138,1.138,0,0,1-1.567,0A1.135,1.135,0,0,1,.315,7.093L7.078.328A1.116,1.116,0,0,1,7.872,0a1.087,1.087,0,0,1,.8.34L15.432,7.1a1.139,1.139,0,0,1,0,1.567,1.111,1.111,0,0,1-.8.337,1.138,1.138,0,0,1-.787-.315L9.006,3.846V15.6Z" transform="translate(-21629 -15595.1)"/>
      <g id="seller" transform="translate(-21639.643 -15583.957)">
        <path id="Path_64583" data-name="Path 64583" d="M36,26h5.057v.843H36Z" transform="translate(-19.671 -11.571)" stroke="#000" stroke-width="0.3"/>
        <path id="Path_64584" data-name="Path 64584" d="M36,16h.843v.843H36Z" transform="translate(-19.671 -5.786)" stroke="#000" stroke-width="0.3"/>
        <path id="Path_64585" data-name="Path 64585" d="M46,16h.843v.843H46Z" transform="translate(-25.457 -5.786)" stroke="#000" stroke-width="0.3"/>
        <path id="Path_64586" data-name="Path 64586" d="M25.6,34H12.536a2.11,2.11,0,0,0-2.107,2.107v4.636H2.421A.421.421,0,0,0,2,41.165v.843a2.11,2.11,0,0,0,2.107,2.107H27.287V35.686A1.686,1.686,0,0,0,25.6,34ZM6.214,43.272H4.107a1.264,1.264,0,0,1-1.264-1.264v-.421H6.214Zm.843,0V41.586H7.9v1.686Zm5.9,0H8.743V41.586h2.529V36.107a1.264,1.264,0,0,1,1.264-1.264h.421Zm7.368-7.557-.134-.872h.536Zm-3.337-.872h.536l-.134.87Zm-.659.585,1.594,3.453-1.594-.911ZM20.5,37.348c0-.009.005-.019.008-.028l.874-1.893V37.97l-1.591.909Zm-1.165-2.505.346,2.259-.827,1.792-.829-1.8.347-2.254Zm-5.539,0h1.686v3.372a.421.421,0,0,0,.211.366l2.739,1.564v3.127H13.8Zm10.115,8.429H19.279V40.145l2.739-1.564a.421.421,0,0,0,.211-.366V34.843h1.686Zm2.529,0H24.758V34.843H25.6a.843.843,0,0,1,.843.843Z" transform="translate(0 -16.2)" stroke="#000" stroke-width="0.3"/>
        <path id="Path_64587" data-name="Path 64587" d="M41,20h.843v1.686H41Z" transform="translate(-22.564 -8.1)" stroke="#000" stroke-width="0.3"/>
        <path id="Path_64588" data-name="Path 64588" d="M38.112,6H29.683V9.835a2.107,2.107,0,0,0,0,4.13v2.992h8.429V13.965a2.107,2.107,0,0,0,0-4.13Zm-7.586.843h6.743V8.529H30.526ZM28.84,11.9a1.267,1.267,0,0,1,.843-1.192v2.385A1.267,1.267,0,0,1,28.84,11.9Zm10.115,0a1.267,1.267,0,0,1-.843,1.192V10.708a1.267,1.267,0,0,1,.843,1.192Zm-1.686,4.214H30.526V9.372h6.743Z" transform="translate(-15.04)" stroke="#000" stroke-width="0.3"/>
      </g>
    </g>
  </g>
</svg>
