<svg xmlns="http://www.w3.org/2000/svg" width="24.026" height="23.9" viewBox="0 0 24.026 23.9">
  <g id="support_texrt" data-name="support texrt" transform="translate(-1 -1.2)">
    <path id="Path_3083" data-name="Path 3083" d="M13.295,11.352a2.279,2.279,0,0,0,2.293-2.294V3.494A2.279,2.279,0,0,0,13.295,1.2h-10A2.279,2.279,0,0,0,1,3.494V9.058a2.279,2.279,0,0,0,2.294,2.294H6.038v2.331a.4.4,0,0,0,.188.338.289.289,0,0,0,.376-.038l3.873-2.632h2.82Zm-3.121-.677L6.79,12.968V10.976a.355.355,0,0,0-.376-.376H3.293A1.525,1.525,0,0,1,1.752,9.058V3.494A1.525,1.525,0,0,1,3.293,1.952h9.964A1.525,1.525,0,0,1,14.8,3.494V9.058A1.525,1.525,0,0,1,13.257,10.6H10.4A.534.534,0,0,0,10.174,10.675Z" transform="translate(0 0)"/>
    <path id="Path_3084" data-name="Path 3084" d="M16.836,8.1H8.076a.376.376,0,0,0,0,.752h8.76a.376.376,0,1,0,0-.752Z" transform="translate(-4.181 -4.306)"/>
    <path id="Path_3085" data-name="Path 3085" d="M16.836,14.1H8.076a.376.376,0,0,0,0,.752h8.76a.376.376,0,1,0,0-.752Z" transform="translate(-4.181 -8.05)"/>
    <path id="Path_3086" data-name="Path 3086" d="M16.836,20H8.076a.376.376,0,0,0,0,.752h8.76a.376.376,0,1,0,0-.752Z" transform="translate(-4.181 -11.732)"/>
    <path id="Path_3087" data-name="Path 3087" d="M38.495,30.6h-10A2.279,2.279,0,0,0,26.2,32.894v5.565a2.279,2.279,0,0,0,2.294,2.294h2.782l3.873,2.632a.445.445,0,0,0,.376.038.4.4,0,0,0,.188-.338V40.752h2.745a2.279,2.279,0,0,0,2.294-2.293V32.894A2.224,2.224,0,0,0,38.495,30.6Zm1.542,7.858A1.525,1.525,0,0,1,38.495,40H35.374a.355.355,0,0,0-.376.376v1.993l-3.384-2.294A.534.534,0,0,0,31.389,40h-2.9a1.525,1.525,0,0,1-1.542-1.542V32.894a1.525,1.525,0,0,1,1.542-1.542h9.964A1.525,1.525,0,0,1,40,32.894v5.565Z" transform="translate(-15.725 -18.346)"/>
    <path id="Path_3088" data-name="Path 3088" d="M42.136,37.6h-8.76a.376.376,0,1,0,0,.752h8.76a.355.355,0,0,0,.376-.376A.377.377,0,0,0,42.136,37.6Z" transform="translate(-19.969 -22.714)"/>
    <path id="Path_3089" data-name="Path 3089" d="M42.136,43.5h-8.76a.376.376,0,1,0,0,.752h8.76a.355.355,0,0,0,.376-.376A.377.377,0,0,0,42.136,43.5Z" transform="translate(-19.969 -26.396)"/>
    <path id="Path_3090" data-name="Path 3090" d="M42.136,49.5h-8.76a.376.376,0,1,0,0,.752h8.76a.355.355,0,0,0,.376-.376A.377.377,0,0,0,42.136,49.5Z" transform="translate(-19.969 -30.14)"/>
  </g>
</svg>
